<svg xmlns="http://www.w3.org/2000/svg" id="logo" viewBox="-277 400.9 40 40"><style>.st0{fill:#FFFFFF;}</style><g><path class="st0" d="M-264.3,416.7c0.2,0,0.3-0.1,0.3-0.3v-0.3c0-0.2-0.1-0.3-0.3-0.3h-4.3c-0.2,0-0.3,0.1-0.3,0.3v0.3c0,0.2,0.1,0.3,0.3,0.3h0.8v2.8h-3.4v-2.8h0.8c0.2,0,0.3-0.1,0.3-0.3v-0.3c0-0.2-0.1-0.3-0.3-0.3h-4.3c-0.2,0-0.3,0.1-0.3,0.3v0.3c0,0.2,0.1,0.3,0.3,0.3h0.8v7.5h-0.8c-0.2,0-0.3,0.1-0.3,0.3v0.3c0,0.2,0.1,0.3,0.3,0.3h4.3c0.2,0,0.3-0.1,0.3-0.3v-0.3c0-0.2-0.1-0.3-0.3-0.3h-0.8v-3.6h3.4v3.6h-0.8c-0.2,0-0.3,0.1-0.3,0.3v0.3c0,0.2,0.1,0.3,0.3,0.3h4.3c0.2,0,0.3-0.1,0.3-0.3v-0.3c0-0.2-0.1-0.3-0.3-0.3h-0.8v-7.5H-264.3z"/><path class="st0" d="M-253.6,424.2h-0.8c0,0,0,0-0.1-0.1c-0.4-1.1-0.9-2.2-1.3-3.3c-0.6-1.6-1.3-3.2-2-4.8c-0.1-0.2-0.2-0.3-0.3-0.2c-0.3,0-0.7,0-1,0c0,0-0.1,0-0.1,0h0l-0.2,0.1l0,0c-0.1,0-0.1,0.1-0.1,0.2c-0.1,0.3-0.2,0.6-0.4,0.9c-0.6,1.5-1.3,3.1-1.9,4.6c-0.1,0.3-0.2,0.6-0.4,0.8c-0.2,0.5-0.4,1-0.6,1.4c0,0.1-0.1,0.2-0.2,0.3h-0.4c-0.2,0-0.3,0.1-0.3,0.3v0.3c0,0.2,0.1,0.3,0.3,0.3h2.3c0.2,0,0.3-0.1,0.3-0.3v-0.3c0-0.2-0.1-0.3-0.3-0.3h-0.8c0.2-0.5,0.4-1,0.6-1.4c0.1-0.2,0.1-0.2,0.2-0.3h3.3l0.7,1.7h-1c-0.2,0-0.3,0.1-0.3,0.3v0.3c0,0.2,0.1,0.3,0.3,0.3h4.3c0.2,0,0.3-0.1,0.3-0.3v-0.3C-253.3,424.3-253.4,424.2-253.6,424.2z M-260.7,421.6c0.4-1.1,0.9-2.2,1.4-3.3l1.3,3.2H-260.7z"/><path class="st0" d="M-240.1,416.7c0.2,0,0.3-0.1,0.3-0.3v-0.3c0-0.2-0.1-0.3-0.3-0.3h-3.3c0,0,0,0-0.1,0c-0.2,0-0.3,0.1-0.3,0.3c-0.1,0.2-0.2,0.4-0.3,0.6c-0.4,0.8-0.7,1.7-1.1,2.5l-0.7,1.6l-0.1,0.3l-0.2,0.3l-2.2-4.8c-0.1-0.2-0.2-0.4-0.3-0.6c-0.1-0.1-0.2-0.3-0.3-0.3c-0.3,0-0.6,0-0.9,0h-2.7c0,0-0.1,0-0.1,0c-0.1,0-0.2,0.1-0.2,0.3v0.3c0,0.2,0.1,0.3,0.3,0.3h1v7.5h-1c-0.1,0-0.3,0.1-0.3,0.2v0.4c0,0.1,0.1,0.3,0.3,0.3h2.9c0.1,0,0.3-0.1,0.3-0.3v-0.4c0-0.1-0.1-0.2-0.3-0.2h-1v-6.6l2,4.4l0.7,1.5c0.1,0.1,0.2,0.1,0.6,0.1c0.3,0,0.5,0,0.8,0c0.2,0,0.3-0.1,0.4-0.3c0.1-0.3,0.2-0.5,0.4-0.8c0.4-0.9,0.8-1.8,1.2-2.6c0.3-0.8,0.7-1.5,1-2.3v6.3h-0.9c-0.2,0-0.3,0.1-0.3,0.3v0.3c0,0.2,0.1,0.3,0.3,0.3h0.9v0h2.5v0h0.9c0.2,0,0.3-0.1,0.3-0.3v-0.3c0-0.2-0.1-0.3-0.3-0.3h-0.9v-7.5H-240.1z"/></g></svg>
